<?xml version="1.0" encoding="UTF-8" standalone="no"?>
<!-- Created with Inkscape (http://www.inkscape.org/) -->

<svg
   width="202.71001mm"
   height="222.02853mm"
   viewBox="0 0 202.71001 222.02854"
   version="1.1"
   id="svg5"
   xml:space="preserve"
   inkscape:version="1.2.2 (b0a8486541, 2022-12-01)"
   sodipodi:docname="logo.svg"
   xmlns:inkscape="http://www.inkscape.org/namespaces/inkscape"
   xmlns:sodipodi="http://sodipodi.sourceforge.net/DTD/sodipodi-0.dtd"
   xmlns="http://www.w3.org/2000/svg"
   xmlns:svg="http://www.w3.org/2000/svg"><sodipodi:namedview
     id="namedview7"
     pagecolor="#ffffff"
     bordercolor="#000000"
     borderopacity="0.25"
     inkscape:showpageshadow="2"
     inkscape:pageopacity="0.0"
     inkscape:pagecheckerboard="0"
     inkscape:deskcolor="#d1d1d1"
     inkscape:document-units="mm"
     showgrid="false"
     inkscape:zoom="0.4204826"
     inkscape:cx="340.08541"
     inkscape:cy="437.59242"
     inkscape:window-width="1920"
     inkscape:window-height="1120"
     inkscape:window-x="0"
     inkscape:window-y="0"
     inkscape:window-maximized="1"
     inkscape:current-layer="layer1" /><defs
     id="defs2" /><g
     inkscape:label="Layer 1"
     inkscape:groupmode="layer"
     id="layer1"
     transform="translate(1251.9104,538.85265)"><g
       id="g394"
       transform="matrix(0.1838309,0,0,0.18668326,-1251.9104,-538.85262)"
       style="stroke:none;stroke-opacity:1"><path
         d="m 1102.6982,358.4512 c 0,-3.55745 -2.1675,-5.19396 -4.8356,-3.65416 L 860.99247,491.55413 V 991.5411 c 0,7.1149 4.33114,10.3898 9.66732,7.31022 l 227.20281,-131.1763 c 2.6681,-1.53979 4.8356,-5.67941 4.8356,-9.23686 z"
         fill="#4d6fbb"
         id="path352"
         style="stroke:none;stroke-opacity:1" /><path
         d="M 862.42418,490.72735 249.57345,136.89742 c -4.27994,-2.47087 -7.75585,0.1555 -7.75585,5.86335 v 501.5059 c 0,2.85392 1.73701,6.17434 3.87793,7.40883 l 597.34091,344.87561 c 10.7008,6.17809 19.38774,-0.38874 19.38774,-14.65647 z"
         fill="#4d6fbb"
         id="path354"
         style="stroke:none;stroke-opacity:1" /><path
         d="M 499.62667,3.822933 C 491.6224,-0.798341 479.49559,-1.30086 472.56462,2.702222 L 246.49766,133.2224 c -6.93286,4.00118 -6.06246,11.00231 1.94181,15.62358 L 844.3373,492.88723 c 8.00427,4.62127 20.13108,5.12379 27.06205,1.12261 L 1097.4663,363.48966 c 6.9329,-4.00308 6.0625,-11.00421 -1.9418,-15.62548 z"
         fill="#6d8aca"
         id="path356"
         style="stroke:none;stroke-opacity:1" /><path
         d="m 499.62667,508.23775 c -8.00427,-4.62128 -20.13108,-5.12379 -27.06205,-1.12071 L 246.49766,637.63721 c -6.93286,4.00119 -6.06246,11.00232 1.94181,15.62359 L 844.3373,997.30204 c 8.00427,4.62126 20.13108,5.12376 27.06205,1.12261 L 1097.4663,867.90447 c 6.9329,-4.00308 6.0625,-11.0042 -1.9418,-15.62548 z"
         fill="#4d6fbb"
         id="path358"
         style="stroke:none;stroke-opacity:1" /><path
         d="m 29.743407,243.06536 c -2.254696,-1.30275 -5.669926,-1.44308 -7.621214,-0.31668 L 3.92723,253.25227 c -1.951289,1.12829 -1.706667,3.10044 0.548029,4.4013 L 494.42133,540.52409 c 2.2547,1.30276 5.66993,1.44308 7.62311,0.31668 l 18.19307,-10.50359 c 1.95319,-1.12829 1.70667,-3.10044 -0.54613,-4.4013 z"
         fill="#4762af"
         id="path360"
         style="stroke:none;stroke-opacity:1" /><path
         d="m 521.29375,529.06856 c 0,-0.89315 -0.54234,-1.30275 -1.21173,-0.9178 l -21.82258,12.59899 c -0.6694,0.38684 -1.21174,1.42601 -1.21174,2.31727 v 429.07496 c 0,0.89126 0.54235,1.30276 1.21174,0.91592 l 21.82258,-12.599 c 0.66939,-0.38684 1.21173,-1.42411 1.21173,-2.31727 z"
         fill="#4762af"
         id="path362"
         style="stroke:none;stroke-opacity:1" /><path
         d="m 499.52047,549.98661 c 0,-7.33298 -4.46388,-15.86442 -9.96314,-19.03882 L 9.965037,254.0544 C 4.463881,250.88 0,254.25541 0,261.58649 v 416.27875 c 0,7.33108 4.463881,15.86252 9.965037,19.03692 l 479.592293,276.8934 c 5.49926,3.17629 9.96314,-0.19911 9.96314,-7.53209 z"
         fill="#6d8aca"
         id="path364"
         style="stroke:none;stroke-opacity:1" /><path
         d="m 467.75751,564.52172 c 0,-6.17434 -3.75846,-13.35751 -8.38921,-16.03129 L 36.361481,304.26643 c -4.630756,-2.67378 -8.391111,0.16877 -8.391111,6.34311 v 350.53037 c 0,6.17434 3.760356,13.35751 8.391111,16.03129 L 459.3683,921.3933 c 4.63075,2.67378 8.38921,-0.16877 8.38921,-6.34311 z"
         fill="#92b3e1"
         id="path366"
         style="stroke:none;stroke-opacity:1" /><path
         d="m 138.61167,802.87668 c -7.91893,-4.57197 -19.9168,-5.0688 -26.7738,-1.10933 l -99.41144,57.3952 c -6.858904,3.95947 -5.996089,10.88663 1.922844,15.45861 L 265.33926,1019.5304 c 7.91893,4.572 19.9168,5.0688 26.7757,1.1094 l 99.40954,-57.39524 c 6.85891,-3.95946 5.99799,-10.88663 -1.92094,-15.4586 z"
         fill="#4762af"
         id="path368"
         style="stroke:none;stroke-opacity:1" /><path
         d="m 247.86489,834.2547 -23.52166,-13.57938 v 46.50287 l 23.52166,13.57938 z"
         fill="#e4e9f5"
         id="path370"
         style="stroke:none;stroke-opacity:1" /><path
         d="m 1076.9427,500.36622 -163.62762,94.47159 v 57.42554 l 163.62762,-94.47159 z m 0,104.34939 -163.62762,94.47159 v 57.42364 l 163.62762,-94.46968 z"
         fill="#6d8aca"
         id="path372"
         style="stroke:none;stroke-opacity:1" /><path
         d="m 1011.3081,756.11022 c 8.9296,-5.15603 16.1773,-0.96901 16.1773,9.34116 0,10.31016 -7.2477,22.86743 -16.1773,28.02157 -8.9297,5.15603 -16.17921,0.9709 -16.17921,-9.34116 0,-10.31016 7.24951,-22.86554 16.17921,-28.02157 z"
         fill="#ffffff"
         id="path374"
         style="stroke:none;stroke-opacity:1" /></g><g
       style="clip-rule:evenodd;fill:#000000;fill-rule:evenodd;stroke:#000000;stroke-linejoin:round;stroke-miterlimit:2;stroke-opacity:1"
       id="g479"
       transform="matrix(0,-0.47552616,0.47552616,0,-1228.8133,-402.17126)"><g
         transform="translate(-460.32542,138.67479)"
         id="g445"
         style="stroke:#000000;stroke-opacity:1">

<g
   id="screwdriver-tools-"
   transform="translate(473.126)"
   style="stroke:#000000;stroke-opacity:1">





<g
   id="g1134"
   transform="translate(3.727817,-171.47958)"><g
     id="g442"
     style="stroke:#000000;stroke-opacity:1"
     transform="translate(-4.4733803,21.621338)">

<g
   transform="translate(-2661.14,-2621.67)"
   id="g400"
   style="stroke:#000000;stroke-opacity:1">

<path
   d="m 2708.54,2699.45 -46.07,46.07 c -0.79,0.78 -0.79,2.05 0,2.83 0.78,0.78 2.04,0.78 2.82,0 l 46.08,-46.08 c 0.78,-0.78 0.78,-2.04 0,-2.82 -0.78,-0.79 -2.05,-0.79 -2.83,0 z"
   style="fill:#808080;stroke:#000000;stroke-opacity:1"
   id="path398" />

</g>

<g
   transform="translate(-2661.14,-2621.67)"
   id="g404"
   style="stroke:#000000;stroke-opacity:1">

<path
   d="m 2710.64,2698.98 c 0.26,0.71 0.1,1.54 -0.46,2.1 l -46.08,46.08 c -0.56,0.56 -1.39,0.72 -2.1,0.46 0.1,0.27 0.25,0.51 0.47,0.73 0.78,0.78 2.04,0.78 2.82,0 l 46.08,-46.08 c 0.78,-0.78 0.78,-2.04 0,-2.82 -0.22,-0.22 -0.46,-0.37 -0.73,-0.47 z"
   style="fill:#606060;stroke:#000000;stroke-opacity:1"
   id="path402" />

</g>

<g
   transform="translate(-2661.14,-2621.67)"
   id="g408"
   style="stroke:#000000;stroke-opacity:1">

<path
   d="m 2784.57,2642.91 c 0.95,-0.95 1.48,-2.23 1.48,-3.57 0,-1.34 -0.53,-2.62 -1.48,-3.57 -2.81,-2.81 -6.71,-6.72 -9.53,-9.53 -0.94,-0.95 -2.23,-1.48 -3.57,-1.48 -1.33,0 -2.62,0.53 -3.56,1.48 -10.61,10.6 -41.7,41.7 -50.16,50.15 -1.18,1.19 -1.18,3.11 0,4.29 3.2,3.2 9.18,9.18 12.38,12.38 1.19,1.18 3.1,1.18 4.29,0 8.45,-8.45 39.55,-39.55 50.15,-50.15 z"
   style="fill:#f4bb31;stroke:#000000;stroke-opacity:1"
   id="path406" />

</g>

<g
   transform="translate(-2661.14,-2621.67)"
   id="g412"
   style="stroke:#000000;stroke-opacity:1">

<path
   d="m 2775.04,2626.24 4.45,4.44 c 0.94,0.95 1.47,2.23 1.47,3.57 0,1.34 -0.53,2.63 -1.47,3.57 -10.61,10.6 -41.7,41.7 -50.16,50.15 -1.18,1.19 -3.1,1.19 -4.28,0 l 5.08,5.09 c 1.19,1.18 3.1,1.18 4.29,0 8.45,-8.45 39.55,-39.55 50.15,-50.15 0.95,-0.95 1.48,-2.23 1.48,-3.57 0,-1.34 -0.53,-2.62 -1.48,-3.57 z"
   style="fill:#b5830a;stroke:#000000;stroke-opacity:1"
   id="path410" />

</g>

<g
   transform="translate(-2661.14,-2621.67)"
   id="g416"
   style="stroke:#000000;stroke-opacity:1">

<path
   d="m 2718.78,2681.7 -7.45,7.45 10.33,10.34 7.45,-7.45 z"
   style="fill:#666666;stroke:#000000;stroke-opacity:1"
   id="path414" />

</g>

<g
   transform="translate(-2661.14,-2621.67)"
   id="g420"
   style="stroke:#000000;stroke-opacity:1">

<path
   d="m 2724.35,2687.26 -7.56,7.35 4.87,4.88 7.45,-7.45 z"
   style="fill:#333333;stroke:#000000;stroke-opacity:1"
   id="path418" />

</g>

<g
   transform="translate(-2661.14,-2621.67)"
   id="g424"
   style="stroke:#000000;stroke-opacity:1">

<path
   d="m 2721.12,2706.36 c 0.98,-0.98 1.53,-2.32 1.53,-3.71 0,-1.39 -0.55,-2.72 -1.53,-3.71 -2.76,-2.75 -6.5,-6.49 -9.25,-9.24 -0.98,-0.99 -2.32,-1.54 -3.71,-1.54 -1.39,0 -2.73,0.55 -3.71,1.54 -1.87,1.86 -3.74,3.73 -3.74,3.73 l 16.67,16.67 c 0,0 1.87,-1.87 3.74,-3.74 z"
   style="fill:#f47632;stroke:#000000;stroke-opacity:1"
   id="path422" />

</g>

<g
   transform="translate(-2661.14,-2621.67)"
   id="g428"
   style="stroke:#000000;stroke-opacity:1">

<path
   d="m 2721.12,2706.36 c 0.98,-0.98 1.53,-2.32 1.53,-3.71 0,-1.39 -0.55,-2.72 -1.53,-3.71 -1.3,-1.29 -2.81,-2.81 -4.34,-4.33 l -7.48,7.42 8.08,8.07 c 0,0 1.87,-1.87 3.74,-3.74 z"
   style="fill:#b75825;stroke:#000000;stroke-opacity:1"
   id="path426" />

</g>

<g
   transform="matrix(0.893588,0.893588,-1.13866,1.13866,-1361.83,-1289.84)"
   id="g432"
   style="stroke:#000000;stroke-opacity:1">

<path
   d="M 1555.34,-16.94 V 22.189"
   style="fill:none;stroke:#000000;stroke-opacity:1"
   id="path430" />

</g>

<g
   transform="translate(-2661.14,-2621.67)"
   id="g436"
   style="stroke:#000000;stroke-opacity:1">

<path
   d="m 2719.73,2682.65 2.72,2.73 0.31,-0.2 37.42,-37.43 c 0.78,-0.78 0.78,-2.05 0,-2.83 -0.78,-0.78 -2.04,-0.78 -2.82,0 l -37.43,37.43 z"
   style="fill:#b5830a;stroke:#000000;stroke-opacity:1"
   id="path434" />

</g>

<g
   transform="translate(-2661.14,-2621.67)"
   id="g440"
   style="stroke:#000000;stroke-opacity:1">

<path
   d="m 2775.64,2626.84 -0.59,0.39 -11.07,11.07 c -0.78,0.78 -0.78,2.04 0,2.82 0.78,0.79 2.05,0.79 2.83,0 l 11.07,-11.07 0.39,-0.58 z"
   style="fill:#b5830a;stroke:#000000;stroke-opacity:1"
   id="path438" />

</g>

</g></g></g>

</g></g><g
       id="g502"
       transform="matrix(0.44471952,0,0,0.44471952,-1245.0025,-445.92251)"
       style="stroke:#000000;stroke-opacity:1"><path
         d="m 113.88,94.05 c -1.36,-1.16 -3.17,-2.53 -5.46,-4.26 C 99.93,83.35 84.22,71.42 57.46,44.76 59.52,41.01 60.69,36.81 60.82,32.39 61.06,24.83 58.13,17.42 52.78,12.07 43.94,3.23 30.23,1.46 19.44,7.77 c -0.49,0.29 -0.79,0.82 -0.79,1.39 0,0.57 0.31,1.1 0.8,1.38 l 16.61,9.59 C 37.7,28.42 32.94,36.7 24.88,39.48 L 8.22,29.84 c -0.49,-0.28 -1.1,-0.29 -1.59,0 -0.49,0.28 -0.8,0.8 -0.81,1.37 -0.09,8.13 3.4,15.85 9.58,21.18 5.12,4.42 11.52,6.62 17.92,6.62 3.59,0 7.17,-0.72 10.54,-2.11 24.21,24.32 35.66,41.18 42.52,51.29 2.4,3.54 4.14,6.1 5.63,7.77 4.56,5.1 9.52,7.86 14.36,7.99 0.12,0 5.33,0.8 10.83,-4.7 3.46,-3.46 5.14,-7.25 4.98,-11.24 -0.2,-4.74 -2.99,-9.44 -8.3,-13.96 z m -9.07,18.92 c -3.39,0 -6.15,-2.75 -6.15,-6.15 0,-3.4 2.75,-6.15 6.15,-6.15 3.4,0 6.15,2.75 6.15,6.15 0,3.4 -2.76,6.15 -6.15,6.15 z"
         fill="#82aec0"
         id="path481"
         style="stroke:#000000;stroke-opacity:1" /><path
         d="m 61.13,48.38 c -1.2,-1.18 -2.42,-2.39 -3.67,-3.63 2.06,-3.75 3.23,-7.95 3.36,-12.37 0.09,-3 -0.32,-5.96 -1.17,-8.79 -0.76,-1.25 -1.96,-2.59 -2.72,-1.78 0.31,9.82 -2.54,20.05 -9.37,27.11 -3.39,3.5 -7.8,6.03 -12.53,7.23 -2.34,0.59 -4.76,0.85 -7.17,0.72 -1.41,-0.08 -5.39,-1.55 -6.19,-0.47 v 0.05 c 3.67,1.71 7.65,2.56 11.63,2.56 3.59,0 7.17,-0.72 10.54,-2.11 7.83,7.87 14.32,14.95 19.76,21.28 -2.72,-5.14 -10.74,-14.63 -12.88,-18.25 -0.48,-0.82 -1.16,-2.92 0.37,-4.81 2.17,-2.65 6.58,-5.11 10.04,-6.74 z"
         fill="#2f7889"
         id="path483"
         style="stroke:#000000;stroke-opacity:1" /><path
         d="m 70.01,66.91 c 0,0 3.73,-1.64 9.25,2.83 5.52,4.48 26.76,22.54 28.55,24.93 1.79,2.39 -5.42,-0.04 -7.96,-0.48 C 97.32,93.74 70.01,66.91 70.01,66.91 Z"
         fill="#b9e4ea"
         id="path485"
         style="stroke:#000000;stroke-opacity:1" /><path
         d="m 43.32,12 c 3.08,2.21 5.84,4.82 8.73,7.28 0.74,0.63 1.83,1.27 2.6,0.66 0.83,-0.66 0.31,-1.98 -0.32,-2.84 C 48.87,9.6 38.68,4.24 28.83,6.37 34.03,8.04 38.7,8.7 43.32,12 Z"
         fill="#b9e4ea"
         id="path487"
         style="stroke:#000000;stroke-opacity:1" /><path
         d="m 18.83,37.74 c 1.21,0.72 2.89,1.7 3.86,1.97 1.17,0.32 4.46,-0.95 5.42,-1.72 -3.94,-2.57 -8.34,-5.45 -12.29,-8.02 -0.45,-0.29 -0.9,-0.59 -1.41,-0.75 -0.62,-0.19 -1.28,-0.18 -1.92,-0.14 -0.9,0.04 -5.3,-0.11 -5.81,0.67 -0.52,0.79 1.31,1.54 1.9,1.9 3.41,2.04 6.84,4.05 10.25,6.09 z"
         fill="#2f7889"
         id="path489"
         style="stroke:#000000;stroke-opacity:1" /></g><g
       id="g2255"
       transform="matrix(0.22478662,0,0,0.22478662,-1170.0767,-414.13542)"
       style="stroke:#000000;stroke-opacity:1">
	<path
   style="fill:#999999;stroke:#000000;stroke-opacity:1"
   d="m 347.045,248.043 v -46.364 l -47.493,-7.556 c -3.185,-13.104 -8.353,-25.432 -15.18,-36.641 l 28.242,-38.929 5.216,-32.784 h -38 L 240.9,114.013 C 229.692,107.186 217.364,102.019 204.26,98.834 L 196.704,51.339 H 150.34 l -7.556,47.497 c -13.103,3.185 -25.429,8.353 -36.636,15.18 l -0.932,-28.245 h -38 l -32.784,32.784 28.246,38.933 c -6.826,11.207 -11.993,23.533 -15.177,36.635 L 0,201.679 v 46.364 l 47.501,7.557 c 3.185,13.102 8.351,25.427 15.177,36.634 l -28.246,38.935 32.784,32.784 h 38 l 0.934,-28.246 c 11.207,6.827 23.533,11.993 36.635,15.179 l 7.557,47.499 h 46.364 l 7.556,-47.497 c 13.103,-3.185 25.43,-8.351 36.638,-15.178 l 38.931,28.244 h 38 l -5.216,-32.784 -28.243,-38.93 c 6.828,-11.208 11.995,-23.536 15.181,-36.639 z m -173.519,4.447 c -15.26,0 -27.64,-12.37 -27.64,-27.63 0,-15.26 12.38,-27.63 27.64,-27.63 15.26,0 27.63,12.37 27.63,27.63 0,15.26 -12.37,27.63 -27.63,27.63 z"
   id="path2225" />
	<path
   style="fill:#cccccc;stroke:#000000;stroke-opacity:1"
   d="m 385.045,248.043 v -46.364 l -47.493,-7.556 c -3.185,-13.104 -8.353,-25.432 -15.18,-36.641 L 350.614,118.553 317.829,85.77 278.9,114.013 C 267.692,107.186 255.364,102.019 242.26,98.834 L 234.704,51.339 H 188.34 l -7.556,47.497 c -13.103,3.185 -25.429,8.353 -36.636,15.18 L 105.216,85.77 72.432,118.554 100.678,157.487 C 93.852,168.694 88.685,181.02 85.501,194.122 L 38,201.679 v 46.364 l 47.501,7.557 c 3.185,13.102 8.351,25.427 15.177,36.634 l -28.246,38.935 32.784,32.784 38.934,-28.246 c 11.207,6.827 23.533,11.993 36.635,15.179 l 7.557,47.499 h 46.364 l 7.556,-47.497 c 13.103,-3.185 25.43,-8.351 36.638,-15.178 l 38.931,28.244 32.784,-32.784 -28.243,-38.93 c 6.828,-11.208 11.995,-23.536 15.181,-36.639 z m -173.519,4.447 c -15.26,0 -27.64,-12.37 -27.64,-27.63 0,-15.26 12.38,-27.63 27.64,-27.63 15.26,0 27.63,12.37 27.63,27.63 0,15.26 -12.37,27.63 -27.63,27.63 z"
   id="path2227" />
	<path
   style="fill:#999999;stroke:#000000;stroke-opacity:1"
   d="m 211.526,136.6 c -3.27,0 -6.49,0.18 -9.67,0.53 -44.2,4.81 -78.59,42.26 -78.59,87.73 0,45.48 34.39,82.92 78.59,87.73 3.18,0.35 6.4,0.53 9.67,0.53 48.74,0 88.26,-39.51 88.26,-88.26 0,-48.74 -39.52,-88.26 -88.26,-88.26 z m -27.64,88.26 c 0,-11.86 7.48,-21.98 17.98,-25.89 3.01,-1.13 6.26,-1.74 9.66,-1.74 15.26,0 27.63,12.37 27.63,27.63 0,15.26 -12.37,27.63 -27.63,27.63 -3.4,0 -6.65,-0.61 -9.66,-1.74 -10.5,-3.91 -17.98,-14.03 -17.98,-25.89 z"
   id="path2229" />
	<path
   style="fill:#b3b3b3;stroke:#000000;stroke-opacity:1"
   d="m 201.856,137.13 c -44.2,4.81 -78.59,42.26 -78.59,87.73 0,45.48 34.39,82.92 78.59,87.73 44.2,-4.81 78.6,-42.25 78.6,-87.73 0,-45.47 -34.4,-82.92 -78.6,-87.73 z m -9.66,115.36 c -15.26,0 -27.64,-12.37 -27.64,-27.63 0,-15.26 12.38,-27.63 27.64,-27.63 3.4,0 6.66,0.61 9.67,1.74 10.49,3.92 17.96,14.03 17.96,25.89 0,11.86 -7.47,21.97 -17.96,25.89 -3.01,1.13 -6.27,1.74 -9.67,1.74 z"
   id="path2231" />
	<path
   style="fill:#999999;stroke:#000000;stroke-opacity:1"
   d="m 202.192,178.3 c -25.72,0 -46.56,20.85 -46.56,46.56 0,25.72 20.84,46.56 46.56,46.56 25.71,0 46.56,-20.84 46.56,-46.56 0,-25.71 -20.85,-46.56 -46.56,-46.56 z m 0,74.19 c -15.26,0 -27.64,-12.37 -27.64,-27.63 0,-15.26 12.38,-27.63 27.64,-27.63 15.26,0 27.63,12.37 27.63,27.63 0,15.26 -12.37,27.63 -27.63,27.63 z"
   id="path2233" />
	<path
   style="fill:#cccccc;stroke:#000000;stroke-opacity:1"
   d="m 211.526,178.3 c -25.72,0 -46.56,20.85 -46.56,46.56 0,25.72 20.84,46.56 46.56,46.56 25.71,0 46.56,-20.84 46.56,-46.56 0,-25.71 -20.85,-46.56 -46.56,-46.56 z m 0,74.19 c -15.26,0 -27.64,-12.37 -27.64,-27.63 0,-15.26 12.38,-27.63 27.64,-27.63 15.26,0 27.63,12.37 27.63,27.63 0,15.26 -12.37,27.63 -27.63,27.63 z"
   id="path2235" />
	<path
   style="fill:#999999;stroke:#000000;stroke-opacity:1"
   d="m 211.526,197.23 c -7.36,0 -14.05,2.87 -19,7.58 5.31,5.02 8.63,12.15 8.63,20.05 0,7.9 -3.32,15.03 -8.63,20.05 4.95,4.71 11.64,7.58 19,7.58 15.26,0 27.63,-12.37 27.63,-27.63 0,-15.26 -12.37,-27.63 -27.63,-27.63 z"
   id="path2237" />
	<g
   id="g2253"
   style="stroke:#000000;stroke-opacity:1">
		<path
   style="fill:#999999;stroke:#000000;stroke-opacity:1"
   d="m 457.62,286.384 13.913,-29.179 h -26 l -31.86,7.626 c -5.421,-7.417 -11.887,-13.829 -19.106,-19.103 l 4.447,-43.949 h -26 l -17.138,27.923 c -8.834,-1.375 -17.939,-1.413 -27.017,-0.002 l 8.863,-27.922 h -26 l -29.18,12.087 7.626,31.863 c -7.416,5.42 -13.827,11.886 -19.1,19.104 l -5.866,-7.627 h -26 l -12.087,29.179 27.926,17.14 c -1.374,8.833 -1.413,17.937 -0.002,27.013 l -27.925,17.139 12.087,29.179 h 26 l 5.865,-7.627 c 5.42,7.415 11.885,13.826 19.102,19.099 l -7.627,31.867 29.179,12.086 h 26 l -8.86,-27.927 c 8.833,1.375 17.937,1.413 27.013,0.003 l 17.138,27.924 h 26 l 0.174,-24.645 -4.62,-19.304 c 7.416,-5.42 13.828,-11.885 19.102,-19.104 l 31.865,7.627 h 26 l -13.913,-29.179 -27.924,-17.138 c 1.375,-8.834 1.414,-17.94 0.003,-27.017 z m -108.048,48.033 c -9.604,3.978 -20.62,-0.58 -24.598,-10.184 -3.978,-9.604 0.589,-20.617 10.193,-24.595 9.604,-3.978 20.614,0.582 24.592,10.186 3.978,9.605 -0.582,20.615 -10.187,24.593 z"
   id="path2239" />
		<path
   style="fill:#b3b3b3;stroke:#000000;stroke-opacity:1"
   d="m 483.62,286.384 -12.087,-29.179 -31.86,7.626 c -5.421,-7.417 -11.887,-13.829 -19.106,-19.103 l 7.626,-31.863 -29.18,-12.086 -17.138,27.923 c -8.834,-1.375 -17.939,-1.413 -27.017,-0.002 l -17.137,-27.922 -29.18,12.087 7.626,31.863 c -7.416,5.42 -13.827,11.886 -19.1,19.104 l -31.866,-7.627 -12.087,29.179 27.926,17.14 c -1.374,8.833 -1.413,17.937 -0.002,27.013 l -27.925,17.139 12.087,29.179 31.865,-7.627 c 5.42,7.415 11.885,13.826 19.102,19.099 l -7.627,31.867 29.179,12.086 17.14,-27.927 c 8.833,1.375 17.937,1.413 27.013,0.003 l 17.138,27.924 29.18,-12.087 -7.626,-31.863 c 7.416,-5.42 13.828,-11.885 19.102,-19.104 l 31.865,7.627 12.087,-29.179 -27.924,-17.138 c 1.375,-8.834 1.414,-17.94 0.003,-27.017 z m -108.048,48.033 c -9.604,3.978 -20.62,-0.58 -24.598,-10.184 -3.978,-9.604 0.589,-20.617 10.193,-24.595 9.604,-3.978 20.614,0.582 24.592,10.186 3.978,9.605 -0.582,20.615 -10.187,24.593 z"
   id="path2241" />
		<path
   style="fill:#999999;stroke:#000000;stroke-opacity:1"
   d="m 368.37,256.905 c -2.228,0 -4.421,0.123 -6.587,0.361 -30.11,3.277 -53.537,28.788 -53.537,59.763 0,30.982 23.427,56.486 53.537,59.763 2.166,0.238 4.36,0.361 6.587,0.361 33.202,0 60.124,-26.915 60.124,-60.124 0,-33.202 -26.921,-60.124 -60.124,-60.124 z m -18.829,60.124 c 0,-8.079 5.096,-14.973 12.248,-17.637 2.05,-0.77 4.264,-1.185 6.581,-1.185 10.395,0 18.822,8.427 18.822,18.822 0,10.395 -8.427,18.822 -18.822,18.822 -2.316,0 -4.53,-0.415 -6.581,-1.185 -7.152,-2.664 -12.248,-9.558 -12.248,-17.637 z"
   id="path2243" />
		<path
   style="fill:#cccccc;stroke:#000000;stroke-opacity:1"
   d="m 361.783,257.266 c -30.11,3.277 -53.537,28.788 -53.537,59.763 0,30.982 23.427,56.486 53.537,59.763 30.11,-3.277 53.543,-28.781 53.543,-59.763 0,-30.975 -23.434,-56.486 -53.543,-59.763 z m -6.581,78.585 c -10.395,0 -18.829,-8.427 -18.829,-18.822 0,-10.395 8.433,-18.822 18.829,-18.822 2.316,0 4.537,0.415 6.587,1.185 7.146,2.67 12.235,9.558 12.235,17.637 0,8.079 -5.089,14.966 -12.235,17.637 -2.05,0.769 -4.271,1.185 -6.587,1.185 z"
   id="path2245" />
		<path
   style="fill:#999999;stroke:#000000;stroke-opacity:1"
   d="m 362.012,285.312 c -17.521,0 -31.717,14.203 -31.717,31.717 0,17.521 14.197,31.717 31.717,31.717 17.514,0 31.717,-14.197 31.717,-31.717 0.001,-17.514 -14.203,-31.717 -31.717,-31.717 z m 0,50.539 c -10.395,0 -18.829,-8.427 -18.829,-18.822 0,-10.395 8.433,-18.822 18.829,-18.822 10.396,0 18.822,8.427 18.822,18.822 0,10.395 -8.427,18.822 -18.822,18.822 z"
   id="path2247" />
		<path
   style="fill:#b3b3b3;stroke:#000000;stroke-opacity:1"
   d="m 368.37,285.312 c -17.521,0 -31.717,14.203 -31.717,31.717 0,17.521 14.197,31.717 31.717,31.717 17.514,0 31.717,-14.197 31.717,-31.717 0.001,-17.514 -14.203,-31.717 -31.717,-31.717 z m 0,50.539 c -10.395,0 -18.829,-8.427 -18.829,-18.822 0,-10.395 8.433,-18.822 18.829,-18.822 10.395,0 18.822,8.427 18.822,18.822 0,10.395 -8.427,18.822 -18.822,18.822 z"
   id="path2249" />
		<path
   style="fill:#999999;stroke:#000000;stroke-opacity:1"
   d="m 368.37,298.207 c -5.014,0 -9.571,1.955 -12.943,5.164 3.617,3.42 5.879,8.277 5.879,13.658 0,5.381 -2.262,10.239 -5.879,13.658 3.372,3.208 7.929,5.163 12.943,5.163 10.395,0 18.822,-8.427 18.822,-18.822 0,-10.395 -8.427,-18.821 -18.822,-18.821 z"
   id="path2251" />
	</g>
</g></g><style
     type="text/css"
     id="style300">
	.st0{fill:#000000;}
</style></svg>
